<svg xmlns:dc="http://purl.org/dc/elements/1.1/" xmlns:cc="http://creativecommons.org/ns#" xmlns:rdf="http://www.w3.org/1999/02/22-rdf-syntax-ns#" xmlns:svg="http://www.w3.org/2000/svg" xmlns="http://www.w3.org/2000/svg" xmlns:sodipodi="http://sodipodi.sourceforge.net/DTD/sodipodi-0.dtd" xmlns:inkscape="http://www.inkscape.org/namespaces/inkscape" version="1.1" x="0px" y="0px" viewBox="0 0 725.22766 807.9525" enable-background="new 0 0 2000 2000" xml:space="preserve"><path style="" d="m 244.07391,0 c -74.922,0 -135.778,68.048 -135.778,151.72398 0,83.643 60.886,151.719 135.778,151.719 74.86,0 135.72004,-68.076 135.72004,-151.719 C 379.79395,68.079 318.93391,0 244.07391,0 Z m 0,62.516 c 40.354,0 73.206,40.009 73.206,89.20798 0,49.197 -32.852,89.204 -73.206,89.204 -40.415,0 -73.264,-40.038 -73.264,-89.204 0,-49.19898 32.849,-89.20798 73.264,-89.20798 z m 318.72704,23.568 c -62.139,0 -112.744,56.167 -112.744,125.18198 0,69.016 50.605,125.152 112.744,125.152 62.17,0 112.682,-56.136 112.682,-125.152 0,-69.01498 -50.544,-125.18198 -112.682,-125.18198 z m 0,62.51 c 27.661,0 50.196,28.13398 50.169,62.67198 0,34.539 -22.508,62.639 -50.169,62.639 -27.694,0 -50.229,-28.132 -50.229,-62.639 0,-34.57 22.504,-62.67198 50.229,-62.67198 z M 241.63691,335.88498 c -53.402,-0.02 -106.898,9.068 -157.909004,27.323 -49.449,18.286 -86.8649997,73.951 -83.51999968,124.087 l 8.84599998,129.874 c 1.1559997,16.411 14.7829997,29.103 31.1939997,29.103 l 402.432044,0 0,0.09 c 16.411,0 30.102,-12.722 31.227,-29.132 l 8.846,-129.78 c 3.469,-50.23 -33.945,-105.897 -83.769,-124.245 -50.636,-18.177 -103.94504,-27.304 -157.34704,-27.323 z m 276.78904,33.884 c -16.603,0.114 -29.901,14.013 -30.204,30.727 -0.313,17.285 13.474,31.507 30.696,31.82 37.665,0.656 74.611,7.377 109.587,19.879 19.725,7.253 35.226,32.759 34.131,48.606 l -5.688,82.953 -131.06,0 c -17.285,0 -31.26,13.975 -31.26,31.26 0,17.285 13.975,31.258 31.26,31.258 l 160.256,0 c 16.409,0 30.036,-12.723 31.193,-29.103 l 7.689,-112.119 c 3.126,-45.136 -30.446,-95.178 -75.143,-111.619 -41.697,-14.91 -85.393,-22.877 -129.841,-23.629 -0.541,-0.02 -1.08,-0.03 -1.616,-0.03 z m -276.86804,28.641 c 46.276,0 92.48904,7.838 136.10904,23.465 25.318,9.345 44.073,41.071 42.667,61.201 l -6.847,100.678 -344.013044,0 0,-0.06 -6.876,-100.681 c -1.346,-20.097 17.377,-51.855 42.475004,-61.138 43.87,-15.659 90.21,-23.472 136.485,-23.464 z" fill="#FFFFFF"/><text x="0" y="661.362" fill="#FFFFFF" font-size="5px" font-weight="bold" font-family="'Helvetica Neue', Helvetica, Arial-Unicode, Arial, Sans-serif">Created by logan</text><text x="0" y="666.362" fill="#FFFFFF" font-size="5px" font-weight="bold" font-family="'Helvetica Neue', Helvetica, Arial-Unicode, Arial, Sans-serif">from the Noun Project</text></svg>